<svg width="20" height="21" viewBox="0 0 20 21" fill="none" xmlns="http://www.w3.org/2000/svg">
<path fill-rule="evenodd" clip-rule="evenodd" d="M10.315 0.335693C12.745 0.335693 13.099 0.348693 14.123 0.395693C15.187 0.444693 15.914 0.613693 16.55 0.860693C17.2175 1.11157 17.8222 1.50505 18.322 2.01369C18.8306 2.51347 19.2241 3.11819 19.475 3.78569C19.722 4.42169 19.891 5.14869 19.94 6.21269C19.988 7.27969 20 7.61969 20 10.3357V10.4157C20 13.0587 19.988 13.4027 19.94 14.4587C19.891 15.5227 19.722 16.2497 19.475 16.8857C19.2241 17.5532 18.8306 18.1579 18.322 18.6577C17.8222 19.1663 17.2175 19.5598 16.55 19.8107C15.914 20.0577 15.187 20.2267 14.123 20.2757C13.056 20.3237 12.716 20.3357 10 20.3357H9.92C7.277 20.3357 6.933 20.3237 5.877 20.2757C4.813 20.2267 4.086 20.0577 3.45 19.8107C2.7825 19.5598 2.17777 19.1663 1.678 18.6577C1.16936 18.1579 0.775874 17.5532 0.525 16.8857C0.278 16.2497 0.109 15.5227 0.0599999 14.4587C0.0129999 13.4347 0 13.0797 0 10.6507V10.0207C0 7.59069 0.0129999 7.23669 0.0599999 6.21269C0.109 5.14869 0.278 4.42169 0.525 3.78569C0.775874 3.11819 1.16936 2.51347 1.678 2.01369C2.17777 1.50505 2.7825 1.11157 3.45 0.860693C4.086 0.613693 4.813 0.444693 5.877 0.395693C6.901 0.348693 7.256 0.335693 9.685 0.335693H10.315ZM10.234 2.13769H9.766C7.31 2.13769 6.982 2.14869 5.959 2.19569C4.984 2.24069 4.455 2.40269 4.102 2.53969C3.635 2.72169 3.302 2.93769 2.952 3.28769C2.602 3.63769 2.386 3.97069 2.204 4.43769C2.067 4.79069 1.904 5.31969 1.86 6.29469C1.813 7.31769 1.802 7.64569 1.802 10.1017V10.5697C1.802 13.0257 1.813 13.3537 1.86 14.3767C1.905 15.3517 2.067 15.8807 2.204 16.2337C2.386 16.6997 2.603 17.0337 2.952 17.3837C3.302 17.7337 3.635 17.9497 4.102 18.1317C4.455 18.2687 4.984 18.4317 5.959 18.4757C7.013 18.5237 7.329 18.5337 10 18.5337H10.08C12.677 18.5337 12.997 18.5237 14.04 18.4757C15.016 18.4307 15.545 18.2687 15.898 18.1317C16.364 17.9497 16.698 17.7337 17.048 17.3837C17.398 17.0337 17.614 16.7007 17.796 16.2337C17.933 15.8807 18.096 15.3517 18.14 14.3767C18.188 13.3217 18.198 13.0067 18.198 10.3357V10.2557C18.198 7.65869 18.188 7.33869 18.14 6.29569C18.095 5.31969 17.933 4.79069 17.796 4.43769C17.6358 4.00326 17.3802 3.61029 17.048 3.28769C16.7254 2.95555 16.3324 2.69995 15.898 2.53969C15.545 2.40269 15.016 2.23969 14.041 2.19569C13.018 2.14869 12.69 2.13769 10.234 2.13769ZM10 5.20069C10.6743 5.20069 11.3421 5.33351 11.9651 5.59157C12.5881 5.84963 13.1542 6.22787 13.631 6.7047C14.1078 7.18153 14.4861 7.74761 14.7441 8.37061C15.0022 8.99362 15.135 9.66136 15.135 10.3357C15.135 11.01 15.0022 11.6778 14.7441 12.3008C14.4861 12.9238 14.1078 13.4899 13.631 13.9667C13.1542 14.4435 12.5881 14.8218 11.9651 15.0798C11.3421 15.3379 10.6743 15.4707 10 15.4707C8.63811 15.4707 7.33201 14.9297 6.36901 13.9667C5.40601 13.0037 4.865 11.6976 4.865 10.3357C4.865 8.97381 5.40601 7.6677 6.36901 6.7047C7.33201 5.7417 8.63811 5.20069 10 5.20069ZM10 7.00269C9.11603 7.00269 8.26827 7.35385 7.64321 7.97891C7.01815 8.60397 6.667 9.45173 6.667 10.3357C6.667 11.2197 7.01815 12.0674 7.64321 12.6925C8.26827 13.3175 9.11603 13.6687 10 13.6687C10.884 13.6687 11.7317 13.3175 12.3568 12.6925C12.9818 12.0674 13.333 11.2197 13.333 10.3357C13.333 9.45173 12.9818 8.60397 12.3568 7.97891C11.7317 7.35385 10.884 7.00269 10 7.00269ZM15.338 3.79769C15.6563 3.79769 15.9615 3.92412 16.1865 4.14917C16.4116 4.37421 16.538 4.67943 16.538 4.99769C16.538 5.31595 16.4116 5.62118 16.1865 5.84622C15.9615 6.07127 15.6563 6.19769 15.338 6.19769C15.0197 6.19769 14.7145 6.07127 14.4895 5.84622C14.2644 5.62118 14.138 5.31595 14.138 4.99769C14.138 4.67943 14.2644 4.37421 14.4895 4.14917C14.7145 3.92412 15.0197 3.79769 15.338 3.79769Z" fill="white"/>
</svg>
